<svg xmlns="http://www.w3.org/2000/svg" version="1.1" xmlns:xlink="http://www.w3.org/1999/xlink" xmlns:svgjs="http://svgjs.dev/svgjs" width="1500" height="329" viewBox="0 0 1500 329"><g transform="matrix(1,0,0,1,-0.90851813165159,-1.8813666146601804)"><svg viewBox="0 0 396 87" data-background-color="#ffffff" preserveAspectRatio="xMidYMid meet" height="329" width="1500" xmlns="http://www.w3.org/2000/svg" xmlns:xlink="http://www.w3.org/1999/xlink"><g id="tight-bounds" transform="matrix(1,0,0,1,0.24014929167918808,0.4975042415666735)"><svg viewBox="0 0 395.52 86.00499151686668" height="86.00499151686668" width="395.52"><g><svg viewBox="0 0 395.52 86.00499151686668" height="86.00499151686668" width="395.52"><g><svg viewBox="0 0 395.52 86.00499151686668" height="86.00499151686668" width="395.52"><g><svg viewBox="0 0 395.52 86.00499151686668" height="86.00499151686668" width="395.52"><g><svg viewBox="0 0 395.52 86.00499151686668" height="86.00499151686668" width="395.52"><g id="textblocktransform"><svg viewBox="0 0 395.52 86.00499151686668" height="86.00499151686668" width="395.52" id="textblock"><g><svg viewBox="0 0 395.52 86.00499151686668" height="86.00499151686668" width="395.52"><g transform="matrix(1,0,0,1,0,0)"><svg width="395.52" viewBox="2.8574614802519998 -39.5 236.81698296419242 51.5" height="86.00499151686668" data-palette-color="#344e41"><path d="M17.4 0.5L17.4 0.5Q14.2 0.5 11.3-0.5 8.4-1.5 6.25-3.3 4.1-5.1 3.1-7.45L3.1-7.45Q2.6-8.5 3.13-9.4 3.65-10.3 4.9-10.55L4.9-10.55Q5.8-10.75 6.68-10.28 7.55-9.8 8-8.85L8-8.85Q8.6-7.6 9.98-6.55 11.35-5.5 13.3-4.85 15.25-4.2 17.4-4.2L17.4-4.2Q19.8-4.2 21.83-4.95 23.85-5.7 25.1-7.13 26.35-8.55 26.35-10.65L26.35-10.65Q26.35-13.3 24.28-15.4 22.2-17.5 17.45-18L17.45-18Q11.25-18.6 7.7-21.65 4.15-24.7 4.15-29.2L4.15-29.2Q4.15-32.5 6-34.8 7.85-37.1 11.03-38.3 14.2-39.5 18.1-39.5L18.1-39.5Q21.15-39.5 23.43-38.65 25.7-37.8 27.4-36.3 29.1-34.8 30.35-32.75L30.35-32.75Q31.05-31.65 30.93-30.68 30.8-29.7 29.95-29.15L29.95-29.15Q29-28.55 27.9-28.9 26.8-29.25 26.25-30.2L26.25-30.2Q25.45-31.65 24.3-32.65 23.15-33.65 21.6-34.23 20.05-34.8 17.95-34.8L17.95-34.8Q14.25-34.85 11.75-33.43 9.25-32 9.25-29.05L9.25-29.05Q9.25-27.55 10.03-26.18 10.8-24.8 12.88-23.8 14.95-22.8 18.85-22.4L18.85-22.4Q24.8-21.8 28.13-18.78 31.45-15.75 31.45-10.8L31.45-10.8Q31.45-7.95 30.28-5.85 29.1-3.75 27.13-2.33 25.15-0.9 22.63-0.2 20.1 0.5 17.4 0.5ZM51.3 0.2L51.3 0.2Q47.25 0.2 44.15-1.58 41.05-3.35 39.27-6.48 37.5-9.6 37.5-13.65L37.5-13.65Q37.5-17.75 39.27-20.88 41.05-24 44.15-25.78 47.25-27.55 51.3-27.55L51.3-27.55Q55.3-27.55 58.4-25.78 61.5-24 63.27-20.88 65.05-17.75 65.05-13.65L65.05-13.65Q65.05-9.6 63.3-6.48 61.55-3.35 58.45-1.58 55.35 0.2 51.3 0.2ZM51.3-4.3L51.3-4.3Q53.9-4.3 55.9-5.5 57.9-6.7 59.02-8.8 60.15-10.9 60.15-13.65L60.15-13.65Q60.15-16.4 59.02-18.53 57.9-20.65 55.9-21.85 53.9-23.05 51.3-23.05L51.3-23.05Q48.7-23.05 46.7-21.85 44.7-20.65 43.55-18.53 42.4-16.4 42.4-13.65L42.4-13.65Q42.4-10.9 43.55-8.8 44.7-6.7 46.7-5.5 48.7-4.3 51.3-4.3ZM84.15 0.25L84.15 0.25Q80.7 0.25 77.97-1.23 75.25-2.7 73.67-5.55 72.1-8.4 72.1-12.55L72.1-12.55 72.1-24.85Q72.1-25.95 72.82-26.68 73.55-27.4 74.65-27.4L74.65-27.4Q75.75-27.4 76.47-26.68 77.2-25.95 77.2-24.85L77.2-24.85 77.2-12.55Q77.2-9.75 78.25-7.93 79.3-6.1 81.1-5.23 82.9-4.35 85.15-4.35L85.15-4.35Q87.3-4.35 88.97-5.2 90.65-6.05 91.65-7.5 92.65-8.95 92.65-10.75L92.65-10.75 95.8-10.75Q95.8-7.65 94.27-5.15 92.75-2.65 90.12-1.2 87.5 0.25 84.15 0.25ZM95.2 0L95.2 0Q94.1 0 93.37-0.73 92.65-1.45 92.65-2.55L92.65-2.55 92.65-24.85Q92.65-26 93.37-26.7 94.1-27.4 95.2-27.4L95.2-27.4Q96.35-27.4 97.05-26.7 97.75-26 97.75-24.85L97.75-24.85 97.75-2.55Q97.75-1.45 97.05-0.73 96.35 0 95.2 0ZM113.34 0L113.24 0Q111.04 0 109.34-1.2 107.64-2.4 106.69-4.48 105.74-6.55 105.74-9.25L105.74-9.25 105.74-36.55Q105.74-37.65 106.44-38.35 107.14-39.05 108.24-39.05L108.24-39.05Q109.34-39.05 110.04-38.35 110.74-37.65 110.74-36.55L110.74-36.55 110.74-9.25Q110.74-7.4 111.44-6.2 112.14-5 113.24-5L113.24-5 114.49-5Q115.49-5 116.12-4.3 116.74-3.6 116.74-2.5L116.74-2.5Q116.74-1.4 115.79-0.7 114.84 0 113.34 0L113.34 0ZM134.64 0.5L134.64 0.5Q131.44 0.5 128.54-0.5 125.64-1.5 123.49-3.3 121.34-5.1 120.34-7.45L120.34-7.45Q119.84-8.5 120.37-9.4 120.89-10.3 122.14-10.55L122.14-10.55Q123.04-10.75 123.92-10.28 124.79-9.8 125.24-8.85L125.24-8.85Q125.84-7.6 127.22-6.55 128.59-5.5 130.54-4.85 132.49-4.2 134.64-4.2L134.64-4.2Q137.04-4.2 139.06-4.95 141.09-5.7 142.34-7.13 143.59-8.55 143.59-10.65L143.59-10.65Q143.59-13.3 141.52-15.4 139.44-17.5 134.69-18L134.69-18Q128.49-18.6 124.94-21.65 121.39-24.7 121.39-29.2L121.39-29.2Q121.39-32.5 123.24-34.8 125.09-37.1 128.27-38.3 131.44-39.5 135.34-39.5L135.34-39.5Q138.39-39.5 140.67-38.65 142.94-37.8 144.64-36.3 146.34-34.8 147.59-32.75L147.59-32.75Q148.29-31.65 148.17-30.68 148.04-29.7 147.19-29.15L147.19-29.15Q146.24-28.55 145.14-28.9 144.04-29.25 143.49-30.2L143.49-30.2Q142.69-31.65 141.54-32.65 140.39-33.65 138.84-34.23 137.29-34.8 135.19-34.8L135.19-34.8Q131.49-34.85 128.99-33.43 126.49-32 126.49-29.05L126.49-29.05Q126.49-27.55 127.27-26.18 128.04-24.8 130.12-23.8 132.19-22.8 136.09-22.4L136.09-22.4Q142.04-21.8 145.37-18.78 148.69-15.75 148.69-10.8L148.69-10.8Q148.69-7.95 147.52-5.85 146.34-3.75 144.37-2.33 142.39-0.9 139.87-0.2 137.34 0.5 134.64 0.5ZM161.04 12L161.04 12Q160.54 12 159.84 11.7L159.84 11.7Q157.64 10.7 158.64 8.55L158.64 8.55 173.89-25.9Q174.89-28 177.04-27.1L177.04-27.1Q179.29-26.15 178.29-23.95L178.29-23.95 162.99 10.45Q162.39 12 161.04 12ZM166.94-1.1L166.94-1.1Q165.99-0.7 165.16-1.03 164.34-1.35 163.84-2.3L163.84-2.3 152.39-24.05Q151.89-25 152.26-25.88 152.64-26.75 153.59-27.15L153.59-27.15Q154.54-27.55 155.39-27.23 156.24-26.9 156.69-25.95L156.69-25.95 167.64-4.2Q168.14-3.25 168.01-2.38 167.89-1.5 166.94-1.1ZM206.19 0.05L206.19 0.05Q205.09 0.05 204.36-0.68 203.64-1.4 203.64-2.5L203.64-2.5 203.64-14.8Q203.64-17.65 202.59-19.45 201.54-21.25 199.76-22.13 197.99-23 195.69-23L195.69-23Q193.59-23 191.89-22.15 190.19-21.3 189.19-19.88 188.19-18.45 188.19-16.6L188.19-16.6 185.04-16.6Q185.04-19.75 186.56-22.23 188.09-24.7 190.74-26.15 193.39-27.6 196.69-27.6L196.69-27.6Q200.14-27.6 202.86-26.13 205.59-24.65 207.16-21.8 208.74-18.95 208.74-14.8L208.74-14.8 208.74-2.5Q208.74-1.4 208.01-0.68 207.29 0.05 206.19 0.05ZM185.64 0.05L185.64 0.05Q184.54 0.05 183.81-0.68 183.09-1.4 183.09-2.5L183.09-2.5 183.09-24.8Q183.09-25.95 183.81-26.65 184.54-27.35 185.64-27.35L185.64-27.35Q186.79-27.35 187.49-26.65 188.19-25.95 188.19-24.8L188.19-24.8 188.19-2.5Q188.19-1.4 187.49-0.68 186.79 0.05 185.64 0.05ZM229.58 0.2L229.58 0.2Q225.58 0.2 222.46-1.63 219.33-3.45 217.56-6.58 215.78-9.7 215.78-13.65L215.78-13.65Q215.78-17.7 217.53-20.85 219.28-24 222.33-25.78 225.38-27.55 229.33-27.55L229.33-27.55Q232.28-27.55 234.73-26.43 237.18-25.3 239.13-23.05L239.13-23.05Q239.83-22.25 239.63-21.4 239.43-20.55 238.53-19.9L238.53-19.9Q237.83-19.4 236.98-19.58 236.13-19.75 235.43-20.45L235.43-20.45Q232.98-23.05 229.33-23.05L229.33-23.05Q226.78-23.05 224.83-21.88 222.88-20.7 221.78-18.6 220.68-16.5 220.68-13.65L220.68-13.65Q220.68-10.95 221.81-8.85 222.93-6.75 224.93-5.53 226.93-4.3 229.58-4.3L229.58-4.3Q231.33-4.3 232.66-4.73 233.98-5.15 235.08-6.05L235.08-6.05Q235.88-6.7 236.73-6.78 237.58-6.85 238.23-6.3L238.23-6.3Q239.08-5.6 239.18-4.73 239.28-3.85 238.58-3.15L238.58-3.15Q234.98 0.2 229.58 0.2Z" opacity="1" transform="matrix(1,0,0,1,0,0)" fill="#344e41" class="wordmark-text-0" data-fill-palette-color="primary" id="text-0"></path></svg></g></svg></g></svg></g></svg></g></svg></g></svg></g></svg></g><defs></defs></svg><rect width="395.52" height="86.00499151686668" fill="none" stroke="none" visibility="hidden"></rect></g></svg></g></svg>